<svg width="800" height="800" xmlns="http://www.w3.org/2000/svg">

 <g>
  <title>Layer 1</title>
  <text transform="matrix(5.66571 0 0 7.1288 -1695.03 -1619.45)" stroke="#000" xml:space="preserve" text-anchor="start" font-family="'Exo'" font-size="24" id="svg_1" y="288.69379" x="303.64779" stroke-width="0" fill="#000000">LazyControl</text>
  <path id="svg_2" d="m135.325,100.08292l0.56913,0l0.17587,-0.54067l0.17587,0.54067l0.56913,0l-0.46044,0.33415l0.17588,0.54067l-0.46044,-0.33416l-0.46044,0.33416l0.17588,-0.54067l-0.46044,-0.33415z" stroke-width="0" stroke="#000" fill="#000000"/>
  <path id="svg_3" d="m148.59166,126.61625l0.56913,0l0.17587,-0.54067l0.17587,0.54067l0.56913,0l-0.46044,0.33415l0.17588,0.54067l-0.46044,-0.33416l-0.46044,0.33416l0.17588,-0.54067l-0.46044,-0.33415z" stroke-width="0" stroke="#000" fill="#000000"/>
  <path id="svg_4" d="m130.01834,122.63625l0.56913,0l0.17587,-0.54067l0.17587,0.54067l0.56913,0l-0.46044,0.33415l0.17588,0.54067l-0.46044,-0.33416l-0.46044,0.33416l0.17588,-0.54067l-0.46044,-0.33415z" stroke-width="0" stroke="#000" fill="#000000"/>
  <text transform="matrix(3.37589 0 0 4.02912 -402.318 -310.415)" stroke="#000" xml:space="preserve" text-anchor="start" font-family="'Dancing Script'" font-size="24" id="svg_5" y="257.38186" x="313.49264" stroke-width="0" fill="#2a8237">BT</text>
 </g>
</svg>